HIERARCHY
ROOT Hips
{
	OFFSET 0.000000 0.000000 0.000000 
	CHANNELS 6 Xposition Yposition Zposition Zrotation Yrotation Xrotation
	JOINT LeftUpLeg
	{
		OFFSET 1.363060 -1.794630 0.839290 
		CHANNELS 3 Zrotation Yrotation Xrotation
		JOINT LeftLeg
		{
			OFFSET 2.448110 -6.726130 0.000000 
			CHANNELS 3 Zrotation Yrotation Xrotation
			JOINT LeftFoot
			{
				OFFSET 2.562200 -7.039590 0.000000 
				CHANNELS 3 Zrotation Yrotation Xrotation
				JOINT LeftToeBase
				{
					OFFSET 0.157640 -0.433110 2.322550 
					CHANNELS 3 Zrotation Yrotation Xrotation
					End Site
					{
						OFFSET 0.000000 0.000000 0.000000 
					}
				}
			}
		}
	}
	JOINT RightUpLeg
	{
		OFFSET -1.305520 -1.794630 0.839290 
		CHANNELS 3 Zrotation Yrotation Xrotation
		JOINT RightLeg
		{
			OFFSET -2.542530 -6.985550 0.000000 
			CHANNELS 3 Zrotation Yrotation Xrotation
			JOINT RightFoot
			{
				OFFSET -2.568260 -7.056230 0.000000 
				CHANNELS 3 Zrotation Yrotation Xrotation
				JOINT RightToeBase
				{
					OFFSET -0.164730 -0.452590 2.363150 
					CHANNELS 3 Zrotation Yrotation Xrotation
					End Site
					{
						OFFSET 0.000000 0.000000 0.000000 
					}
				}
			}
		}
	}
	JOINT Spine
	{
		OFFSET 0.028270 2.035590 -0.193380 
		CHANNELS 3 Zrotation Yrotation Xrotation
		JOINT Spine1
		{
			OFFSET 0.056720 2.048850 -0.042750 
			CHANNELS 3 Zrotation Yrotation Xrotation
			JOINT Neck1
			{
				OFFSET -0.054170 1.746240 0.172020 
				CHANNELS 3 Zrotation Yrotation Xrotation
				JOINT Head
				{
					OFFSET 0.104070 1.761360 -0.123970 
					CHANNELS 3 Zrotation Yrotation Xrotation
					End Site
					{
						OFFSET 0.000000 0.000000 0.000000 
					}
				}
			}
			JOINT LeftArm
			{
				OFFSET 3.362410 1.200890 -0.311210 
				CHANNELS 3 Zrotation Yrotation Xrotation
				JOINT LeftForeArm
				{
					OFFSET 4.983000 -0.000000 -0.000000 
					CHANNELS 3 Zrotation Yrotation Xrotation
					JOINT LeftHand
					{
						OFFSET 3.483560 -0.000000 -0.000000 
						CHANNELS 3 Zrotation Yrotation Xrotation
						JOINT LeftHandIndex1
						{
							OFFSET 0.715260 -0.000000 -0.000000 
							CHANNELS 3 Zrotation Yrotation Xrotation
							End Site
							{
								OFFSET 0.000000 0.000000 0.000000 
							}
						}
					}
				}
			}
			JOINT RightArm
			{
				OFFSET -3.136600 1.374050 -0.404650 
				CHANNELS 3 Zrotation Yrotation Xrotation
				JOINT RightForeArm
				{
					OFFSET -5.241900 -0.000000 -0.000000 
					CHANNELS 3 Zrotation Yrotation Xrotation
					JOINT RightHand
					{
						OFFSET -3.444170 -0.000000 -0.000000 
						CHANNELS 3 Zrotation Yrotation Xrotation
						JOINT RightHandIndex1
						{
							OFFSET -0.622530 -0.000000 -0.000000 
							CHANNELS 3 Zrotation Yrotation Xrotation
							End Site
							{
								OFFSET 0.000000 0.000000 0.000000 
							}
						}
					}
				}
			}
		}
	}
}
MOTION
Frames: 10
Frame Time: 0.041667
2.843172 16.717221 17.235727 173.106398 -5.972109 -144.649328 -22.389077 -46.885791 -48.738651 11.525096 20.724357 71.419085 3.874929 -14.315856 -57.375936 6.730400 -15.100600 -47.847000 34.593942 43.497831 -44.383414 -7.056828 -11.149716 27.271757 -5.398416 -2.540711 -50.833394 -0.368800 3.900600 -10.797300 -10.337224 -4.956923 10.953390 2.993501 -3.786726 11.214194 13.598791 -9.731688 45.377114 1.368800 -0.844900 7.164100 -105.064953 -5.624694 15.357378 23.066368 -22.639567 -3.031515 0.741257 -0.249427 4.476285 -7.125000 0.000000 0.000000 105.270106 -5.368037 -0.859670 -25.255929 33.606454 -5.089260 0.031678 -4.466279 -5.285632 7.125000 0.000000 0.000000 
2.878664 16.720091 17.207410 173.110568 -5.812041 -144.661109 -22.551959 -46.593092 -48.486642 11.538621 20.734657 71.162752 4.105115 -13.600220 -57.579966 7.192100 -15.491600 -49.597200 34.627367 43.613560 -44.401976 -7.021265 -11.152367 27.281985 -5.361334 -2.395658 -50.833585 -0.350300 3.803000 -10.523100 -9.820069 -5.037114 11.696606 2.768559 -3.842750 11.382632 12.902062 -9.247383 45.156055 1.304100 -0.736900 7.186900 -105.114865 -5.708521 14.935027 23.098297 -22.765071 -3.046347 0.743873 -0.240699 3.961141 -7.125000 0.000000 0.000000 105.324773 -5.088464 -0.637017 -25.120306 33.501967 -5.042137 0.007448 -4.461590 -5.121532 7.125000 0.000000 0.000000 
2.914060 16.721813 17.179763 173.033906 -5.765415 -144.579132 -22.613360 -46.471760 -48.345999 11.447069 20.693120 70.943600 3.980709 -13.886042 -57.468509 7.182700 -15.483800 -49.561900 34.725336 43.580138 -44.344544 -7.020171 -11.128400 27.198846 -5.347069 -2.365359 -50.808144 -0.356500 3.835800 -10.615300 -9.408517 -5.185287 11.598551 2.716800 -3.905517 11.619290 12.339121 -8.686683 44.014127 1.243800 -0.643200 6.997800 -105.229205 -5.692753 14.549944 23.134089 -22.817027 -3.057263 0.753758 -0.235831 3.970353 -7.125000 0.000000 0.000000 105.261936 -4.991366 -0.460420 -25.059340 33.389963 -5.012852 0.005855 -4.471402 -4.970561 7.125000 0.000000 0.000000 
2.947543 16.721909 17.147428 172.870001 -5.700536 -144.684216 -22.825112 -46.453607 -47.930727 11.194521 20.599427 70.654595 3.413941 -15.378360 -56.997844 6.534600 -14.927100 -47.091200 35.093999 43.528185 -43.866671 -7.034551 -11.070557 27.007194 -5.361339 -2.420027 -50.825354 -0.356300 3.835100 -10.613100 -9.786927 -5.179016 12.220754 2.604886 -3.935702 11.334309 12.693149 -9.266934 45.829303 1.267900 -0.729700 7.354700 -105.213082 -5.586790 14.377263 23.139342 -22.919467 -3.068415 0.757746 -0.237041 4.018695 -7.125000 0.000000 0.000000 105.427540 -4.917558 -0.425500 -24.869214 33.265974 -4.946782 -0.013622 -4.480119 -4.603180 7.125000 0.000000 0.000000 
2.979687 16.724205 17.114806 172.843046 -5.608058 -144.852893 -23.056278 -46.401722 -47.462064 10.932298 20.507749 70.395546 2.780328 -17.009465 -56.482350 5.733900 -14.165500 -43.904400 35.509067 43.543320 -43.328172 -7.035039 -10.981875 26.708176 -5.366677 -2.430087 -50.861243 -0.351600 3.809500 -10.541300 -9.206529 -5.285644 13.203364 2.393970 -3.987770 11.135069 12.292646 -8.902006 45.551767 1.241100 -0.649200 7.376300 -105.351877 -5.706966 13.883546 23.119811 -23.034652 -3.068904 0.751105 -0.239853 4.004627 -7.125000 0.000000 0.000000 105.429599 -4.629127 -0.288574 -24.666662 33.106293 -4.871409 -0.039581 -4.477523 -4.229692 7.125000 0.000000 0.000000 
3.011256 16.728414 17.086776 172.895252 -5.488013 -144.735460 -23.028348 -46.215676 -47.385424 10.858330 20.469503 70.247321 2.576034 -17.380931 -56.234756 5.638000 -14.068100 -43.511100 35.600901 43.576015 -43.338335 -7.009159 -10.948636 26.649457 -5.299945 -2.171302 -50.946793 -0.320500 3.639200 -10.063700 -8.377310 -5.406712 12.878067 2.177791 -4.018100 11.555098 12.167104 -8.597585 44.754778 1.261700 -0.579400 7.236200 -105.497915 -5.699580 13.465720 23.126861 -23.022543 -3.066506 0.752866 -0.232325 4.108107 -7.125000 0.000000 0.000000 105.399179 -4.608078 -0.356302 -24.655565 33.018696 -4.864438 -0.037810 -4.470407 -3.925837 7.125000 0.000000 0.000000 
3.042921 16.731667 17.054059 172.782196 -5.259128 -144.641638 -23.161898 -45.932721 -47.103568 10.847114 20.449913 70.005521 2.586715 -17.090209 -56.119477 5.885000 -14.316000 -44.518600 35.990071 43.455547 -43.098863 -6.990580 -10.934892 26.759053 -5.165712 -1.690207 -51.042793 -0.260700 3.285100 -9.073400 -9.691263 -5.447039 11.350982 2.214750 -4.006411 11.352835 12.565142 -8.833964 45.850410 1.331400 -0.535800 7.335800 -105.304797 -5.038364 13.353414 23.225906 -23.021433 -3.089865 0.761262 -0.214299 3.980697 -7.125000 0.000000 0.000000 105.579824 -5.117408 -0.317479 -24.689006 32.957986 -4.865920 -0.036742 -4.450854 -3.762969 7.125000 0.000000 0.000000 
3.082718 16.730423 17.038465 172.591185 -5.413464 -144.171523 -22.640652 -45.982684 -47.746394 10.853967 20.419772 70.070726 2.391060 -17.349442 -55.731803 5.892500 -14.323300 -44.548700 35.508362 43.454361 -43.722737 -6.993516 -10.985029 26.904873 -5.184543 -1.747578 -51.064623 -0.229100 3.081000 -8.504400 -9.255194 -5.728351 10.178422 2.215703 -4.117576 11.610849 12.487722 -8.871760 46.085200 1.331200 -0.566800 7.344000 -105.291010 -4.899740 13.291030 23.228168 -22.895227 -3.076477 0.770966 -0.211238 3.893638 -7.125000 0.000000 0.000000 105.555608 -5.194667 -0.533142 -24.667673 32.831785 -4.840276 -0.055917 -4.453029 -3.618712 7.125000 0.000000 0.000000 
3.116966 16.734537 17.021628 172.211854 -5.544940 -143.862916 -22.335634 -46.144936 -48.243204 10.865068 20.408206 70.206329 2.140293 -17.747531 -55.275538 5.735200 -14.166800 -43.909700 35.134067 43.402890 -44.042551 -7.023441 -10.954680 26.808922 -5.193411 -1.808857 -51.036736 -0.212200 2.965500 -8.182800 -10.197448 -5.835183 10.076334 2.381255 -4.234749 12.105943 12.152631 -8.587234 45.389940 1.252600 -0.517700 7.261200 -105.168948 -5.137329 13.093563 23.133512 -22.754123 -3.030096 0.790990 -0.213714 3.929926 -7.125000 0.000000 0.000000 105.912216 -4.848337 -0.851602 -24.428751 32.657255 -4.760594 -0.140778 -4.460736 -3.171442 7.125000 0.000000 0.000000 
3.126628 16.743146 16.949401 172.194570 -4.663541 -144.584822 -24.088637 -45.548349 -46.115131 10.716133 20.392111 69.539679 2.037250 -17.703357 -55.158522 5.477900 -13.902500 -42.848400 36.881259 43.092308 -42.007993 -7.033725 -10.708110 26.369598 -4.870609 -0.826166 -50.928156 -0.223900 3.045900 -8.406400 -11.957291 -5.407399 9.614819 2.654560 -4.023090 11.792389 11.581073 -8.271295 45.821432 1.195800 -0.402800 7.256200 -105.180381 -4.236828 13.215323 23.263399 -22.877676 -3.092733 0.799020 -0.193085 3.767242 -7.125000 0.000000 0.000000 106.074527 -5.416241 -0.834778 -24.388665 32.587076 -4.743295 -0.171718 -4.456016 -3.208555 7.125000 0.000000 0.000000 
